<svg width="40" height="41" viewBox="0 0 40 41" fill="none" xmlns="http://www.w3.org/2000/svg">
<path fill-rule="evenodd" clip-rule="evenodd" d="M30 7.1359C30 6.69388 29.8244 6.26995 29.5118 5.95739C29.1993 5.64483 28.7754 5.46924 28.3333 5.46924C27.8913 5.46924 27.4674 5.64483 27.1548 5.95739C26.8423 6.26995 26.6667 6.69388 26.6667 7.1359V8.80257H6.66667C6.22464 8.80257 5.80072 8.97817 5.48816 9.29073C5.17559 9.60329 5 10.0272 5 10.4692C5 10.9113 5.17559 11.3352 5.48816 11.6477C5.80072 11.9603 6.22464 12.1359 6.66667 12.1359H26.6667V13.8026C26.6667 14.2446 26.8423 14.6685 27.1548 14.9811C27.4674 15.2936 27.8913 15.4692 28.3333 15.4692C28.7754 15.4692 29.1993 15.2936 29.5118 14.9811C29.8244 14.6685 30 14.2446 30 13.8026V12.1359H33.3333C33.7754 12.1359 34.1993 11.9603 34.5118 11.6477C34.8244 11.3352 35 10.9113 35 10.4692C35 10.0272 34.8244 9.60329 34.5118 9.29073C34.1993 8.97817 33.7754 8.80257 33.3333 8.80257H30V7.1359ZM6.66667 18.8026C6.22464 18.8026 5.80072 18.9782 5.48816 19.2907C5.17559 19.6033 5 20.0272 5 20.4692C5 20.9113 5.17559 21.3352 5.48816 21.6477C5.80072 21.9603 6.22464 22.1359 6.66667 22.1359H10V23.8026C10 24.2446 10.1756 24.6685 10.4882 24.9811C10.8007 25.2936 11.2246 25.4692 11.6667 25.4692C12.1087 25.4692 12.5326 25.2936 12.8452 24.9811C13.1577 24.6685 13.3333 24.2446 13.3333 23.8026V22.1359H33.3333C33.7754 22.1359 34.1993 21.9603 34.5118 21.6477C34.8244 21.3352 35 20.9113 35 20.4692C35 20.0272 34.8244 19.6033 34.5118 19.2907C34.1993 18.9782 33.7754 18.8026 33.3333 18.8026H13.3333V17.1359C13.3333 16.6939 13.1577 16.27 12.8452 15.9574C12.5326 15.6448 12.1087 15.4692 11.6667 15.4692C11.2246 15.4692 10.8007 15.6448 10.4882 15.9574C10.1756 16.27 10 16.6939 10 17.1359V18.8026H6.66667ZM5 30.4692C5 30.0272 5.17559 29.6033 5.48816 29.2907C5.80072 28.9782 6.22464 28.8026 6.66667 28.8026H26.6667V27.1359C26.6667 26.6939 26.8423 26.27 27.1548 25.9574C27.4674 25.6448 27.8913 25.4692 28.3333 25.4692C28.7754 25.4692 29.1993 25.6448 29.5118 25.9574C29.8244 26.27 30 26.6939 30 27.1359V28.8026H33.3333C33.7754 28.8026 34.1993 28.9782 34.5118 29.2907C34.8244 29.6033 35 30.0272 35 30.4692C35 30.9113 34.8244 31.3352 34.5118 31.6478C34.1993 31.9603 33.7754 32.1359 33.3333 32.1359H30V33.8026C30 34.2446 29.8244 34.6685 29.5118 34.9811C29.1993 35.2936 28.7754 35.4692 28.3333 35.4692C27.8913 35.4692 27.4674 35.2936 27.1548 34.9811C26.8423 34.6685 26.6667 34.2446 26.6667 33.8026V32.1359H6.66667C6.22464 32.1359 5.80072 31.9603 5.48816 31.6478C5.17559 31.3352 5 30.9113 5 30.4692Z" fill="black"/>
</svg>
